<?xml version="1.0" encoding="UTF-8"?>
<svg xmlns="http://www.w3.org/2000/svg" xmlns:xlink="http://www.w3.org/1999/xlink" viewBox="0 0 651.01 148.8">
  <!-- Logo blanco para tema oscuro -->
  <defs>
    <style>
      .cls-1{fill:url(#Degradado_SCUT1);}.cls-2{fill:url(#Degradado_SCUT1-2);}.cls-3{fill:url(#Degradado_SCUT1-3);}.cls-4{fill:url(#Degradado_SCUT1-4);}.cls-5{fill:url(#Degradado_SCUT1-5);}.cls-6{fill:url(#Degradado_SCUT1-6);}.cls-7{fill:url(#Degradado_SCUT1-7);}.cls-8{fill:url(#Degradado_SCUT1-8);}.cls-9{fill:url(#Degradado_SCUT1-9);}.cls-10{fill:url(#Degradado_SCUT1-10);}.cls-11{fill:url(#Degradado_SCUT1-11);}.cls-12{fill:url(#Degradado_SCUT1-12);}.cls-13{fill:url(#Degradado_SCUT1-13);}.cls-14{fill:#fff;}
    </style>
    <linearGradient id="Degradado_SCUT1" x1="45.68" y1="52.45" x2="141.08" y2="52.45" gradientUnits="userSpaceOnUse">
      <stop offset="0" stop-color="#7528ee"/>
      <stop offset="1" stop-color="#01c2cc"/>
    </linearGradient>
    <linearGradient id="Degradado_SCUT1-2" x1="55.16" y1="119.95" x2="91.91" y2="119.95" xlink:href="#Degradado_SCUT1"/>
    <linearGradient id="Degradado_SCUT1-3" x1="0" y1="57.46" x2="58.92" y2="57.46" xlink:href="#Degradado_SCUT1"/>
    <linearGradient id="Degradado_SCUT1-4" x1="89.69" y1="111.78" x2="111.85" y2="111.78" xlink:href="#Degradado_SCUT1"/>
    <linearGradient id="Degradado_SCUT1-5" x1="102.69" y1="113.72" x2="128.99" y2="113.72" xlink:href="#Degradado_SCUT1"/>
    <linearGradient id="Degradado_SCUT1-6" x1="33.78" y1="50.5" x2="52.74" y2="50.5" xlink:href="#Degradado_SCUT1"/>
    <linearGradient id="Degradado_SCUT1-7" x1="59.76" y1="56.23" x2="67.17" y2="56.23" xlink:href="#Degradado_SCUT1"/>
    <linearGradient id="Degradado_SCUT1-8" x1="55.27" y1="86.86" x2="73.9" y2="86.86" xlink:href="#Degradado_SCUT1"/>
    <linearGradient id="Degradado_SCUT1-9" x1="70.79" y1="66.15" x2="78.77" y2="66.15" xlink:href="#Degradado_SCUT1"/>
    <linearGradient id="Degradado_SCUT1-10" x1="81.95" y1="77.57" x2="94.57" y2="77.57" xlink:href="#Degradado_SCUT1"/>
    <linearGradient id="Degradado_SCUT1-11" x1="69.6" y1="90" x2="81.64" y2="90" xlink:href="#Degradado_SCUT1"/>
    <linearGradient id="Degradado_SCUT1-12" x1="56.46" y1="76.71" x2="66.36" y2="76.71" xlink:href="#Degradado_SCUT1"/>
    <linearGradient id="Degradado_SCUT1-13" x1="114.37" y1="14.56" x2="121.54" y2="14.56" xlink:href="#Degradado_SCUT1"/>
  </defs>
  <g id="Capa_2" data-name="Capa 2">
    <g id="Capa_1-2" data-name="Capa 1">
      <path class="cls-1" d="M121.06,104.66c-.38-.31-.76-.57-1.09-.88Q109.89,94,99.81,84.27a46.71,46.71,0,0,1-8.25-10.51,38.28,38.28,0,0,1-4.8-14.5A27.77,27.77,0,0,1,86.9,50a25.1,25.1,0,0,1,3.16-7.74c0,.55,0,.9,0,1.25-.58,10.15,2.74,19,9.24,26.64.61.71,1.23,1.42,1.88,2.09.14.15.43.16.65.23l.13-.21c-.46-.89-.89-1.79-1.37-2.68A49,49,0,0,1,95.09,55c-.88-4.81-1.12-9.63.49-14.33a28.4,28.4,0,0,1,2.09-4.47c1-1.84,2.18-3.6,3.28-5.4a3.29,3.29,0,0,0,.37-.66,4.41,4.41,0,0,0,.09-.73,2.15,2.15,0,0,0-.68.08c-2.07,1-4.14,2-6.2,2.94-1.27.59-2.53,1.2-3.79,1.78a1.8,1.8,0,0,1-.62,0,2.27,2.27,0,0,1,.19-.59,24.35,24.35,0,0,1,10.65-9,48.52,48.52,0,0,1,19.65-4.88,27.27,27.27,0,0,1,12.73,2.59c.29.14.59.25.91.39a6.25,6.25,0,0,0,.16-4.4c-1.1-3.92-3.83-6-7.69-6.91a35.66,35.66,0,0,0-9.17-.37c-1.36.05-2.7.19-4.06.19a4.7,4.7,0,0,0-4.18,2.17,7.54,7.54,0,0,1-10.64,1.75c-1.72-1.22-3.4-2.49-5.1-3.74a2.08,2.08,0,0,0-.36-.17,9.59,9.59,0,0,1,5.62-.6l2.23.41a2.9,2.9,0,0,0,3.1-1.32c-1.35-.32-2.63-.73-3.94-.93a40.27,40.27,0,0,0-41,18.54c-1,1.55-1.94,3.15-2.92,4.73l.13.13.61-.44a73.39,73.39,0,0,1,9.82-6.43A30.93,30.93,0,0,1,77,22a4.41,4.41,0,0,1,.58,0c-12.45,7.44-18.83,18.61-21,32.69-.78-1.06-1.5-1.92-2.09-2.87-2.62-4.19-5.2-8.41-7.81-12.61a5.74,5.74,0,0,1-.15-6.4C50,26.86,53.65,21.07,58.37,16A47.74,47.74,0,0,1,80.59,2.31a58.6,58.6,0,0,1,19.19-2,53.75,53.75,0,0,1,15.94,3.31,24.21,24.21,0,0,0,5.59,1c3.2.4,6.47.33,9.59,1.29a13.11,13.11,0,0,1,9.61,10.68,23.8,23.8,0,0,1,.38,8.07A12.75,12.75,0,0,1,134.56,34a25.49,25.49,0,0,1-3.5,1.55,5.42,5.42,0,0,1-.78.15c.49-1,.95-1.83,1.34-2.7a8.91,8.91,0,0,0,.67-1.94,3.2,3.2,0,0,0-1.58-3.51,12.29,12.29,0,0,0-5.9-1.64,19.06,19.06,0,0,0-13.48,4.33,12.55,12.55,0,0,0-4.67,7.63A8.62,8.62,0,0,0,108,44.06c1.74,2.72,3.62,5.35,5.46,8A86,86,0,0,1,121,64.29a47.38,47.38,0,0,1,4.54,25,43.66,43.66,0,0,1-4.1,14.68C121.31,104.21,121.19,104.41,121.06,104.66Z"/>
      <path class="cls-2" d="M91.91,92.49,87,96.88c-4.07,3.6-8.16,7.17-12.19,10.81a17.72,17.72,0,0,0-2.61,3,3.58,3.58,0,0,0-.17,4,27.6,27.6,0,0,0,2.57,3.55,18.86,18.86,0,0,1,3.08,4.35c1.55,3.62.57,6.75-1.93,9.55a12.13,12.13,0,0,1-1.86,1.72,6,6,0,0,0-2.63,6.58,5.77,5.77,0,0,1-1.56,5.44c-2.16,2.31-4.78,3.46-8,2.74a7.78,7.78,0,0,1-6.19-5.7,8,8,0,0,1,10.55-9.72,2.68,2.68,0,0,0,3.29-.6c.62-.67,1.43-1.15,2.1-1.77a13.9,13.9,0,0,0,1.81-1.87,4.49,4.49,0,0,0,.64-4.6,16.08,16.08,0,0,0-3.29-4.69,11.37,11.37,0,0,1-3-5.28,8.1,8.1,0,0,1,2.69-7.88c3.22-3,6.51-5.92,9.79-8.85,2.17-1.94,4.37-3.83,6.57-5.74a3.11,3.11,0,0,1,3.63-.36C90.84,91.81,91.32,92.13,91.91,92.49ZM63.13,144.82a4.15,4.15,0,0,0,4.24-4,4.4,4.4,0,0,0-4.08-4.3,4.19,4.19,0,0,0-4.11,4A4.07,4.07,0,0,0,63.13,144.82Z"/>
      <path class="cls-3" d="M56.32,64.2c.86,1,1.7,1.94,2.6,3C58,68,57,68.82,56.11,69.62c-3,2.54-5.89,5.1-8.88,7.6A9.66,9.66,0,0,1,42,79.61c-3,.31-5.31-1-7.23-3.11-2.72-3-5.34-6-8-9-4.14-4.73-8.27-9.45-12.37-14.21-1.55-1.81-3.33-2.66-5.71-1.93a3.86,3.86,0,0,1-1.36.08A8.06,8.06,0,0,1,.25,45.3a8.18,8.18,0,0,1,8.26-10,8.29,8.29,0,0,1,7.62,7,6.12,6.12,0,0,1-.4,3.17,4.54,4.54,0,0,0,1,4.9Q26.64,61.71,36.6,73a11.73,11.73,0,0,0,1.72,1.58,4.46,4.46,0,0,0,5.94.08c1.61-1.2,3.09-2.58,4.61-3.91C51.35,68.62,53.81,66.42,56.32,64.2ZM8,47.55a4.26,4.26,0,0,0,4.25-4.15A4.33,4.33,0,0,0,8,39.14a4.28,4.28,0,0,0-4.19,4.08A4.38,4.38,0,0,0,8,47.55Z"/>
      <path class="cls-4" d="M100.22,96.12c-1.39,1.25-2.67,2.4-3.93,3.55-.39.36-.76.73-1.12,1.12a4.87,4.87,0,0,0-.24,6.84c.88,1.11,1.83,2.17,2.73,3.27a5.22,5.22,0,0,0,5.24,1.82,7,7,0,0,1,7.21,2.78,8.13,8.13,0,0,1,1,8.51,8.11,8.11,0,0,1-15.29-1.71,6.89,6.89,0,0,1,.26-3.92,4.2,4.2,0,0,0-1.12-4.86,28.85,28.85,0,0,1-3.84-4.65A8.76,8.76,0,0,1,93,97.33c.73-.64,1.45-1.27,2.21-1.86A2.57,2.57,0,0,1,98,95.11Zm3.7,28.74a4.07,4.07,0,1,0,0-8.14,4.07,4.07,0,1,0,0,8.14Z"/>
      <path class="cls-5" d="M103,97.17l2,.35a1.71,1.71,0,0,1,1.43,1.69,14.11,14.11,0,0,0,.43,2.84,8.66,8.66,0,0,0,1.42,2.85c2.57,3.11,5.25,6.12,7.89,9.17a2.82,2.82,0,0,0,2.4.94,20.62,20.62,0,0,1,4.3,0,7,7,0,0,1,5.89,5.79,7.49,7.49,0,0,1-2.34,7.48,7.85,7.85,0,0,1-12.62-3.19,6.45,6.45,0,0,1-.13-3.91c.09-.31.17-.62.26-.93a4.37,4.37,0,0,0-1.05-4.39c-2.45-2.72-4.93-5.42-7.34-8.18A11.41,11.41,0,0,1,103,97.17Zm22.14,25.36a4.07,4.07,0,0,0-3.91-4.06,4.25,4.25,0,0,0-4.09,4,4,4,0,1,0,8,.11Z"/>
      <path class="cls-6" d="M51,57l1.78,2.56c-1.87,2.74-6.31,3.79-9,.77s-5.61-6.23-8.36-9.39A5.67,5.67,0,0,1,35.47,43c1.15-1.26,2.5-2.35,3.75-3.51a1.63,1.63,0,0,1,.22-.17,1.88,1.88,0,0,1,2.27,0c.91,1.07.95,2.06.08,2.93-.63.63-1.31,1.22-2,1.83a11.74,11.74,0,0,0-1.1,1.13c-1.11,1.35-1.18,2.49,0,3.83C41,51.68,43.44,54.34,45.82,57a2.51,2.51,0,0,0,3.26.71C49.68,57.47,50.3,57.24,51,57Z"/>
      <path class="cls-7" d="M67.17,46.07V66.56c-.19-.17-.33-.26-.45-.38-2.09-2.25-4.15-4.52-6.28-6.74a2.18,2.18,0,0,1-.54-2.38,24,24,0,0,1,3.64-7c1.07-1.45,2.26-2.8,3.4-4.19Z"/>
      <path class="cls-8" d="M70.82,78.59l3.08,2.47a8.16,8.16,0,0,0-.72.48L59,94.21a5.29,5.29,0,0,1-.59.47,1.79,1.79,0,0,1-2.77-.52,1.49,1.49,0,0,1,0-2,5.16,5.16,0,0,1,.75-.8q7.05-6.3,14.11-12.57Z"/>
      <path class="cls-9" d="M75.07,56c.28,2.52.48,5,.82,7.42a73.33,73.33,0,0,0,2.69,11.2,9.06,9.06,0,0,1,.19,1.49l-.26.16a6.46,6.46,0,0,1-1.16-.72c-1.83-1.76-3.59-3.6-5.45-5.34a3.1,3.1,0,0,1-1-3.16,59.77,59.77,0,0,1,1.66-6.21,33.68,33.68,0,0,1,2-4.18A5,5,0,0,1,75.07,56Z"/>
      <path class="cls-10" d="M82.65,67.23c.65,1.43,1.26,2.88,1.95,4.29a123.23,123.23,0,0,0,9.67,15.64,3.39,3.39,0,0,1,.27.39c0,.09,0,.26,0,.3a.44.44,0,0,1-.35.05,1.76,1.76,0,0,1-.4-.27c-3-2.2-6.07-4.42-9.14-6.59A5.74,5.74,0,0,1,82,75.8c.14-2.85.32-5.71.48-8.56Z"/>
      <path class="cls-11" d="M78.34,84.39l3.3,2.29-3.08,2.71-6.08,5.37,0,0c-1,.89-1.83,1-2.35.48s-.73-2.56,0-3.26c2-1.8,3.91-3.66,5.87-5.49C76.76,85.81,77.54,85.11,78.34,84.39Z"/>
      <path class="cls-12" d="M63.71,72.08l2.65,2.79c-.32.3-.61.57-.92.84-1.95,1.69-3.89,3.4-5.86,5.08a1.68,1.68,0,0,1-2.75-.36,1.64,1.64,0,0,1,.33-2.38c1.4-1.32,2.83-2.61,4.25-3.9C62.15,73.47,62.9,72.8,63.71,72.08Z"/>
      <path class="cls-13" d="M114.37,15.16c1.11-2.35,4.26-2.83,7.17-1.52C119.86,16.52,118,16.87,114.37,15.16Z"/>
      <path class="cls-14" d="M260.21,0l-5.94,7.73c-3.27,4.27-6.56,8.53-9.82,12.82a1.55,1.55,0,0,1-1.4.67q-28.1,0-56.19,0a18.92,18.92,0,0,0-4.3.5c-3,.72-4.37,2.84-4,5.92.35,2.67,2,4.24,5.06,4.62a32.89,32.89,0,0,0,4.32.3c15.24,0,30.49,0,45.73.06a42.1,42.1,0,0,1,16,2.89c7.89,3.25,12.12,9.13,12.61,17.66a28.93,28.93,0,0,1-2,13.2c-2.45,5.77-6.85,9.52-12.56,11.86a43.25,43.25,0,0,1-13.92,3c-3.45.2-6.92.29-10.38.3q-35.53,0-71.08,0h-1.08c.21-.32.35-.53.5-.73Q159.38,71,167,61.1a1.31,1.31,0,0,1,1.24-.5q30.15,0,60.3,0a27.62,27.62,0,0,0,4.63-.36,5.62,5.62,0,0,0,4.13-8.39c-1-1.9-2.77-2.53-4.7-2.8a32.3,32.3,0,0,0-4.17-.25c-15,0-30,0-44.92,0a44.35,44.35,0,0,1-13.63-2,22.87,22.87,0,0,1-11.55-7.65,21.2,21.2,0,0,1-4.21-12,25.18,25.18,0,0,1,2.55-13.47,21.69,21.69,0,0,1,10.73-9.75A45.15,45.15,0,0,1,183.64.2c3-.17,5.9-.18,8.85-.18h67.72Z"/>
      <path class="cls-14" d="M383.25.05h25.19V1.1c0,14.77,0,29.55,0,44.33a33.17,33.17,0,0,0,.59,6.29c.82,4,3.61,6.36,7.32,7.74a36.42,36.42,0,0,0,9.18,1.91,128.29,128.29,0,0,0,21.38.3,31,31,0,0,0,10.93-2.43,11.58,11.58,0,0,0,7-9.59,31.56,31.56,0,0,0,.28-4.24q0-22.12,0-44.25V.07h25.38c0,.26,0,.55,0,.83q0,22.32,0,44.65a40.14,40.14,0,0,1-2.62,15.25A29.55,29.55,0,0,1,475,75.49a50.93,50.93,0,0,1-17.13,6c-10.14,1.81-20.34,1.78-30.56,1a88.51,88.51,0,0,1-17-2.76,44.61,44.61,0,0,1-15.34-7.16,28.38,28.38,0,0,1-11.14-19,57.88,57.88,0,0,1-.63-8.63c-.07-14.59,0-29.18,0-43.77Z"/>
      <path class="cls-14" d="M377.6,60.6c-.34.46-.58.78-.82,1.08q-7.45,9.63-14.9,19.26a1.57,1.57,0,0,1-1.41.66H320.7A58.8,58.8,0,0,1,296.88,77c-9.62-4.21-17.24-10.65-22-20.17a36.93,36.93,0,0,1-3.52-21.94c1.86-13.28,9.46-22.46,21.12-28.56A55.08,55.08,0,0,1,314.39.34c3-.22,5.95-.28,8.93-.29q26.57,0,53.13,0h1.07c-.15.25-.23.43-.35.59-5.1,6.65-10.22,13.29-15.3,20a1.48,1.48,0,0,1-1.34.64c-13.28,0-26.56,0-39.85,0A29.16,29.16,0,0,0,308,23.8c-5.5,2.6-9.48,6.6-11,12.62-2.13,8.24,1.42,16.34,9,20.64A29.49,29.49,0,0,0,320.8,60.6h56.8Z"/>
      <path class="cls-14" d="M559.78,21.22V81.53H534.53V21.27H496.12l2.75-3.58q6.6-8.57,13.19-17.12A1.25,1.25,0,0,1,513.18,0h92.17l-.57.77q-7.63,9.89-15.26,19.78a1.55,1.55,0,0,1-1.4.67q-13.65,0-27.29,0Z"/>
      <path class="cls-14" d="M651,0V81.53H625.77V21.3H605.91c.14-.28.2-.44.29-.58Q613.47,10.61,620.75.51a1.28,1.28,0,0,1,.9-.48q14.45,0,28.9,0Z"/>
      <path class="cls-14" d="M312.89,108.6v39h-5V98.45c1.33,0,2.67,0,4,0,.22,0,.47.37.62.62l12.81,21.82q3.88,6.63,7.78,13.27l.44.7c.19-.31.36-.56.51-.82q10.14-17.46,20.27-34.91a1.18,1.18,0,0,1,1.23-.73c1.13.06,2.27,0,3.45,0v49.18h-4.91v-39l-.2-.07-.45.76-18.26,31.22a2.07,2.07,0,0,1-3.48,0l-18.31-31.1C313.3,109.23,313.15,109,312.89,108.6Z"/>
      <path class="cls-14" d="M568.38,98.48h5.14v49.19c-1.32,0-2.62,0-3.91,0a1.15,1.15,0,0,1-.68-.43q-11.46-14.41-22.9-28.85l-8-10.07-.42-.48v39.79h-5.2V98.45c1.36,0,2.68,0,4,0,.21,0,.46.23.61.42q8.58,10.77,17.14,21.56l13.69,17.21.52.61Z"/>
      <path class="cls-14" d="M277.58,123.06c-.13,12.2-8,21.95-20.07,24.4-7.71,1.57-15,.41-21.6-4.17A23.18,23.18,0,0,1,226,127.2,25,25,0,0,1,228.63,111a24.17,24.17,0,0,1,16.79-12.32,27.09,27.09,0,0,1,17.63,1.72,23.68,23.68,0,0,1,14,18C277.34,119.94,277.41,121.51,277.58,123.06Zm-46.79-.17c.05.87.07,1.62.15,2.35a19.35,19.35,0,0,0,9.08,15,21.37,21.37,0,0,0,14.87,3A19.18,19.18,0,0,0,269.24,134a20.74,20.74,0,0,0,2.83-13.86,19.21,19.21,0,0,0-5.79-11.8,21.9,21.9,0,0,0-25.6-2.87C234,109.42,231.05,115.47,230.79,122.89Z"/>
      <path class="cls-14" d="M393.91,97.46l.51,0c6.52,0,13,0,19.55.06a21.23,21.23,0,0,1,11.21,3.06,14.88,14.88,0,0,1,7.21,12.11,17.68,17.68,0,0,1-1.45,9,15.26,15.26,0,0,1-8.8,7.79,25.06,25.06,0,0,1-8.86,1.59c-4.4,0-8.8,0-13.2,0h-1v15.5h-5.2Zm5.23,4.54v24.5l.61,0c4.45,0,8.9,0,13.35,0a24.29,24.29,0,0,0,5-.63c5.84-1.36,9.09-5.45,9.12-11.42,0-4.06-1.24-7.55-4.75-9.92a14.14,14.14,0,0,0-7.63-2.41c-5.16-.15-10.33-.12-15.49-.16A2,2,0,0,0,399.14,102Z"/>
      <path class="cls-14" d="M455.25,147.67c1.06-2.32,2.05-4.5,3.05-6.68q9.57-20.9,19.13-41.78a1.11,1.11,0,0,1,1.24-.78c1.16,0,2.33,0,3.5,0a1,1,0,0,1,1.12.72q6.68,14.67,13.41,29.32,4.26,9.28,8.51,18.58l.27.62c-1.79,0-3.5,0-5.2,0-.19,0-.43-.32-.53-.55-1.79-3.94-3.58-7.89-5.32-11.85a1.08,1.08,0,0,0-1.17-.76q-12.93,0-25.85,0a1.06,1.06,0,0,0-1.16.76c-1.74,3.94-3.53,7.85-5.27,11.79a.92.92,0,0,1-1,.66C458.46,147.64,456.92,147.67,455.25,147.67Zm36.89-17.42c-3.93-8.79-7.83-17.49-11.81-26.38l-11.82,26.38Z"/>
      <path class="cls-14" d="M197,108.23a45.46,45.46,0,0,0-5.47-3.52,21.26,21.26,0,0,0-18.66.07,20.32,20.32,0,0,0,5.77,38.34c6,.92,11.66-.1,16.54-4,.6-.48,1.14-1,1.65-1.48l3.33,3.26a17.91,17.91,0,0,1-5.69,4.31c-9,4.19-17.94,4.05-26.55-1-6.36-3.71-10-9.48-11.19-16.7a25.39,25.39,0,0,1,1.94-15.34,23.83,23.83,0,0,1,15.37-13,28.28,28.28,0,0,1,16-.08A21.8,21.8,0,0,1,200,105a.93.93,0,0,1,.11.19Z"/>
      <path class="cls-14" d="M600.41,98.45c1.83,0,3.52,0,5.21,0,.25,0,.56.34.72.6q6.31,10.31,12.62,20.63l3.9,6.36,1.7-2.76q7.41-12.12,14.81-24.23a1.12,1.12,0,0,1,1.12-.65c1.43,0,2.86,0,4.47,0-.23.38-.39.66-.56.93Q635,114.67,625.7,130a2.91,2.91,0,0,0-.41,1.47c0,5.1,0,10.21,0,15.31v.89H620.1v-.94c0-5,0-10.05,0-15.08a3.51,3.51,0,0,0-.49-1.76q-9.32-15.31-18.7-30.58Z"/>
    </g>
  </g>
</svg>